<?xml version="1.0" encoding="utf-8"?>
<!-- Generator: Adobe Illustrator 21.0.2, SVG Export Plug-In . SVG Version: 6.00 Build 0)  -->
<svg version="1.1" id="Layer_1" xmlns="http://www.w3.org/2000/svg" xmlns:xlink="http://www.w3.org/1999/xlink" x="0px" y="0px"
	 viewBox="0 0 400 400" style="enable-background:new 0 0 400 400;" xml:space="preserve">
<style type="text/css">
	.st0{fill:#2D2D2D;}
	.st1{fill:#F9ED75;}
</style>
<g>
	<g>
		<path class="st0" d="M264.6,84.2c-4.5-1.1-7.9,2.5-9.9,5.5c-2.4-2.6-5.3-5.1-8.5-7.4c-5-8.7-10-9.2-10-9.2
			c2.2-18.7-21.5-25.5-21.5-25.5c3.9,5.7-1.1,13.1-1.1,13.1C204.5,39.6,194.9,39,194.9,39c6.1,7.1,3.1,18.3,3.1,18.3
			c-11.5-14.3-24.4-15.1-34.7-14.9c-10.3,0.1-21.9-1.8-21.9-1.8s-2,10,10.2,13.5c12.2,3.5,9.3,8.8,9.3,8.8c-4.1-5.6-14.1-3-14.1-3
			c6.8,1.4,8.3,10.8,8.3,10.8c-4.7-5.2-13.8-3.6-13.8-3.6c7.2,7.4,4.6,13.3,1.7,16.6c-2.4,1.8-4.6,3.8-6.5,5.8
			c-2-2.9-5.3-6.3-9.8-5.3c-7.5,1.7-24.6,11.4-12.4,35.1c5.5,10.6,10.2,13.1,13.8,12.7c3.9,8.7,11.8,15.7,21.6,19
			c-2.2,4.9-3.5,10.1-3.5,15.7c0,23.6,22.4,42.8,50,42.8c27.6,0,50-19.2,50-42.8c0-5.7-1.3-11.1-3.6-16c9.3-3.4,16.8-10.2,20.6-18.6
			c3.6,0.4,8.3-2.2,13.7-12.7C289.2,95.6,272.1,86,264.6,84.2z"/>
		<g>
			<path class="st1" d="M206.7,120.6c0,0.3,0.1,0.6,0.1,0.9h48.8c0-0.5,0.1-1,0.1-1.5h-49C206.7,120.2,206.7,120.4,206.7,120.6z"/>
			<path class="st1" d="M206.7,116h48.9c-0.1-0.5-0.1-1-0.2-1.5h-48.6C206.7,115,206.7,115.5,206.7,116z"/>
			<path class="st1" d="M214.4,137c4.1,3.9,10.7,6.7,18.1,6.7c5,0,10.4-1.4,15.5-4.7c3.4-2.2,5.9-7.7,7-13.6h-47.6
				C209,131.5,211.7,134.5,214.4,137z"/>
			<path class="st1" d="M246.8,143.8c-6.7,3.1-17,4.5-29.1-0.6c-1.5-0.7-5.4-3.3-6.8-4.8c-3-3.2-7.9-9.6-9.7-18.1
				c0,0-0.6-6.3-5.6-6.3c-5,0-5.6,6.3-5.6,6.3c-1.8,8.6-6.7,14.9-9.7,18.1c-1.5,1.6-5.3,4.2-6.8,4.8c-12.2,5.2-22.6,3.7-29.3,0.5
				c3.2,2.8,7.1,5.1,11.3,6.5c-1.9,4.2-3,8.8-3,13.6c0,20.5,19.5,37.2,43.5,37.2c24,0,43.5-16.6,43.5-37.2c0-4.9-1.1-9.6-3.2-13.9
				C240.3,148.6,243.8,146.5,246.8,143.8z M190,158.6c-2.3,0-4.1-1.1-4.1-2.4c0-1.3,1.8-2.4,4.1-2.4c2.3,0,4.1,1.1,4.1,2.4
				C194.1,157.5,192.3,158.6,190,158.6z M197.1,156.2c0-1.3,1.8-2.4,4.1-2.4c2.3,0,4.1,1.1,4.1,2.4c0,1.3-1.8,2.4-4.1,2.4
				C198.9,158.6,197.1,157.5,197.1,156.2z M227.4,177.7c-1.7,3-4.1,5.7-6.9,7.8c-0.7,0.5-1.4,1-2.2,1.5c-0.4,0.2-0.7,0.5-1.1,0.7
				l-1.2,0.6c-0.8,0.4-1.6,0.8-2.4,1.1c-0.8,0.3-1.6,0.5-2.5,0.8c-0.4,0.1-0.8,0.3-1.2,0.4l-1.3,0.2c-0.8,0.1-1.7,0.3-2.5,0.4
				c-0.8,0.1-1.7,0.1-2.5,0.1c-0.8,0-1.7,0-2.5-0.1c1.6-0.7,3.1-1.2,4.6-1.8c0.7-0.3,1.5-0.7,2.2-1l1.1-0.5c0.4-0.2,0.7-0.4,1.1-0.5
				c0.7-0.4,1.4-0.7,2.1-1c0.7-0.4,1.4-0.8,2-1.2c0.3-0.2,0.7-0.4,1-0.6c0.3-0.2,0.6-0.4,1-0.7c0.6-0.4,1.3-0.9,1.9-1.3
				c2.5-1.9,4.7-4,6.7-6.5c1-1.2,1.9-2.5,2.8-3.8c0.9-1.4,1.7-2.8,2.4-4.3C230.3,171.3,229.1,174.7,227.4,177.7z"/>
			<path class="st1" d="M201.2,106.5c0,0,2.2,0.2,7.4-2.7c3.9-2.2,19-4,24.9-4c2.1,0,6.6,0.2,11.6,0.4c-5.6-4.3-12.9-6.9-20.8-6.9
				c-11.3,0-21.2,5.2-27,13.2H201.2z"/>
			<path class="st1" d="M231.7,103.7c-6.9,0.2-11.9,0.6-15.5,1.4h31.3c-3.4-1.2-7.6-1.5-11.5-1.5
				C234.5,103.6,233.1,103.6,231.7,103.7z"/>
			<path class="st1" d="M207.9,110.5h45.9c-0.3-0.5-0.5-1-0.8-1.5h-44C208.5,109.5,208.1,110.1,207.9,110.5z"/>
			<path class="st1" d="M176.8,137c2.7-2.5,5.4-5.5,6.9-11.6h-47.6c1.1,5.9,3.6,11.4,7,13.6C155.8,147.2,169.9,143.5,176.8,137z"/>
			<path class="st1" d="M184.5,120.6c0-0.2,0-0.4,0-0.6h-49c0,0.5,0,1,0.1,1.5h48.8C184.4,121.2,184.5,120.9,184.5,120.6z"/>
			<path class="st1" d="M143.7,105.1H175c-3.6-0.8-8.6-1.2-15.5-1.4C154.6,103.5,148.4,103.4,143.7,105.1z"/>
			<path class="st1" d="M157.7,99.8c5.9,0,21,1.8,24.9,4c5.2,3,7.4,2.7,7.4,2.7h3.9c-5.8-7.9-15.7-13.2-27-13.2
				c-7.9,0-15.2,2.6-20.8,6.9C151,100,155.6,99.8,157.7,99.8z"/>
			<path class="st1" d="M138.2,109c-0.3,0.5-0.6,1-0.8,1.5h46c-0.3-0.5-0.6-1-1.1-1.5H138.2z"/>
			<path class="st1" d="M184.4,114.5h-48.6c-0.1,0.5-0.2,1-0.2,1.5h48.9C184.5,115.5,184.5,115,184.4,114.5z"/>
		</g>
		<path class="st1" d="M123.6,92.2c-5.8,2.2-13.3,15.8-1.6,28.2c0,0,3,3.7,4.2-7.1c0.2-1.6,0.4-3.2,0.6-4.6
			c-0.1,0.1-0.3,0.1-0.4,0.1c-1.1,0-3-1.4-3-3s1.9-2.7,3-2.7c0.5,0,0.9,0.3,1.2,0.7c0.9-4.9,1.6-7.6,1.6-7.6S129.5,89.9,123.6,92.2z
			"/>
		<path class="st1" d="M267.8,92.2c5.8,2.2,13.3,15.8,1.6,28.2c0,0-3,3.7-4.2-7.1c-0.2-1.6-0.4-3.2-0.6-4.6c0.1,0.1,0.3,0.1,0.4,0.1
			c1.1,0,1.9-1.3,1.9-2.9s-0.9-2.9-1.9-2.9c-0.5,0-0.9,0.3-1.2,0.7c-0.9-4.9-1.6-7.6-1.6-7.6S261.9,89.9,267.8,92.2z"/>
	</g>
	<g>
		<path class="st0" d="M17.6,265.5l0.5,3.6c5.3-1.3,9.6-1.8,12.9-1.4c4.4,0.4,8.2,1.6,11.5,3.7c3.4-3.7,9.2-5.5,17.5-5.5
			c6.5,0,11.8,3.4,15.7,10.1c1.2,3.6,1.8,7.3,1.8,11.1c0,15-0.4,26.7-1.3,35.1H59.8c0-7,0-17.2,0-30.6c-0.3-3.3-2.1-5.1-5.4-5.4
			c-4.4,0.1-6.4,3.3-6,9.8l0.1,26.2h-16l-0.2-10.7L32.2,294c-0.3-2.6-1.9-4.1-4.9-4.6c-4.4,0-6.7,2.3-6.8,6.7l-0.4,26H1.5l0.2-25.8
			c0-10.7-0.6-19.9-1.6-27.6L17.6,265.5z"/>
		<path class="st0" d="M109.9,266.1c10.5,0,17.4,4.5,20.8,13.5c0.7,2.1,1,4.8,0.9,8.1c0,10.4-4.4,20.1-13.1,28.9
			c-4.3,4.1-10.5,6.1-18.5,5.9c-12-0.3-18.6-7.7-19.8-22.1c-0.7-13,4.1-22.8,14.1-29.4C99.8,267.7,105,266.1,109.9,266.1z M98,297.9
			c0.6,3.8,2.5,5.7,5.7,5.7c6.9-1.2,10.6-4.8,10.9-10.9c0.3-5-1.5-7.6-5.3-7.7C101.9,286.2,98.2,290.5,98,297.9z"/>
		<path class="st0" d="M151.1,264.7l0.5,4.2c5.6-1.7,10.6-2.5,14.8-2.5c6.6,0.4,11.7,2.9,15.4,7.5c2.2,3.9,3.3,8.7,3.2,14.4l-1.2,34
			h-17.2l0.3-28.3c0.1-5.2-1.5-8-4.9-8.3c-4-0.3-6.6,1.4-7.9,5c-0.7,3.9-1,14.4-1,31.5h-18.2l-0.4-35.2c0-5.3-0.3-11.5-1-18.6
			L151.1,264.7z"/>
		<path class="st0" d="M215.2,250.9c-1.8,11.9-2.9,21.7-3.3,29.5l20.3-10l4.7,14l-15.9,9.8c4.7,4,9.8,9.2,15.3,15.7l-12.8,12
			l-14.9-15.5c-1.2,5.8-2.2,11.1-3,15.9h-17.7c3.1-30.8,5.6-56.9,7.6-78.2L215.2,250.9z"/>
		<path class="st0" d="M281.9,271.1c5.7,4.7,8.7,10.9,8.8,18.7l-31.1,14.1c1.4,1.6,4.5,2.4,9.3,2.5c4.9,0.1,10.9-2.9,18.1-9.2
			l4.1,13.9c-10.5,10.5-22,14.4-34.5,11.6c-10.2-4.1-16.2-12.2-17.8-24.3c-0.3-7.7,0.8-14.1,3.3-19.2c5.5-8.3,12.7-12.4,21.5-12.3
			C270.8,266.4,276.9,267.8,281.9,271.1z M255.1,290.7l18.3-8.1c-3-3.6-7.4-4.5-13.1-2.7C256.3,282,254.6,285.6,255.1,290.7z"/>
		<path class="st0" d="M336.3,271.1c5.7,4.7,8.7,10.9,8.8,18.7L314,303.9c1.4,1.6,4.5,2.4,9.3,2.5c4.9,0.1,10.9-2.9,18.1-9.2
			l4.1,13.9c-10.5,10.5-22,14.4-34.5,11.6c-10.2-4.1-16.2-12.2-17.8-24.3c-0.3-7.7,0.8-14.1,3.3-19.2c5.5-8.3,12.7-12.4,21.5-12.3
			C325.2,266.4,331.3,267.8,336.3,271.1z M309.6,290.7l18.3-8.1c-3-3.6-7.4-4.5-13.1-2.7C310.8,282,309,285.6,309.6,290.7z"/>
		<path class="st0" d="M390.7,271.1c5.7,4.7,8.7,10.9,8.8,18.7l-31.1,14.1c1.4,1.6,4.5,2.4,9.3,2.5c4.9,0.1,10.9-2.9,18.1-9.2
			l4.1,13.9c-10.5,10.5-22,14.4-34.5,11.6c-10.2-4.1-16.2-12.2-17.8-24.3c-0.3-7.7,0.8-14.1,3.3-19.2c5.5-8.3,12.7-12.4,21.5-12.3
			C379.7,266.4,385.7,267.8,390.7,271.1z M364,290.7l18.3-8.1c-3-3.6-7.4-4.5-13.1-2.7C365.2,282,363.5,285.6,364,290.7z"/>
	</g>
	<g>
		<path class="st0" d="M3.4,341.5h3.3V361H3.4V341.5z"/>
		<path class="st0" d="M37.5,341.5v20.3c-0.1-0.2-0.4-0.5-0.8-0.9c-0.4-0.4-1-0.9-1.6-1.5c-0.6-0.6-1.3-1.3-2.1-2
			c-0.8-0.7-1.5-1.4-2.3-2.2c-0.8-0.7-1.5-1.5-2.3-2.2c-0.7-0.7-1.4-1.4-2-2c-0.6-0.6-1.1-1.1-1.5-1.5c-0.4-0.4-0.7-0.7-0.8-0.9
			c0,0-0.1-0.1-0.2-0.3s-0.2-0.3-0.3-0.4l0.1,0.9v12h-3.3v-20.3c0.1,0.2,0.4,0.4,0.8,0.9c0.4,0.4,1,0.9,1.6,1.5
			c0.6,0.6,1.3,1.2,2.1,1.9c0.8,0.7,1.5,1.4,2.3,2.1c0.8,0.7,1.5,1.4,2.3,2.1c0.7,0.7,1.4,1.3,2.1,1.9c0.6,0.6,1.1,1.1,1.6,1.5
			c0.4,0.4,0.7,0.7,0.8,0.9l0.5,0.7l-0.1-0.9v-11.8H37.5z"/>
		<path class="st0" d="M66.5,340.7c0.1,0.1,0.3,0.4,0.6,0.8c0.3,0.4,0.7,1,1.1,1.6c0.5,0.6,1,1.3,1.5,2.1c0.6,0.8,1.1,1.5,1.7,2.3
			c0.6,0.8,1.1,1.6,1.7,2.3c0.6,0.8,1,1.4,1.5,2.1c0.4,0.6,0.8,1.1,1.1,1.6c0.3,0.4,0.5,0.7,0.6,0.8c0-0.1,0.2-0.3,0.5-0.7
			s0.6-0.9,1.1-1.5c0.4-0.6,0.9-1.3,1.5-2.1c0.6-0.8,1.1-1.6,1.7-2.4c0.6-0.8,1.2-1.6,1.7-2.4c0.6-0.8,1.1-1.5,1.5-2.1
			c0.5-0.6,0.9-1.2,1.2-1.6c0.3-0.4,0.5-0.7,0.6-0.9V361h-3.5v-9.9c0-0.1,0-0.3,0.1-0.5c0-0.2,0.1-0.3,0.1-0.3l-6.4,9.2
			c-0.1-0.1-0.3-0.4-0.7-0.9c-0.3-0.5-0.8-1-1.2-1.7c-0.5-0.7-1-1.4-1.5-2.1c-0.5-0.8-1-1.5-1.5-2.1c-0.5-0.6-0.9-1.2-1.2-1.7
			c-0.3-0.5-0.5-0.7-0.5-0.8c0,0,0,0.1,0.1,0.3c0,0.2,0.1,0.3,0.1,0.5v9.9h-3.3V340.7z"/>
		<path class="st0" d="M107.1,361.2c-1,0-2-0.2-2.9-0.5c-0.9-0.3-1.7-0.8-2.4-1.5c-0.7-0.6-1.2-1.4-1.6-2.3
			c-0.4-0.9-0.6-1.9-0.6-2.9v-12.5h3.3V354c0,0.6,0.1,1.1,0.3,1.6c0.2,0.5,0.5,0.9,0.9,1.3c0.4,0.4,0.8,0.7,1.3,0.9
			c0.5,0.2,1.1,0.3,1.7,0.3c0.6,0,1.2-0.1,1.7-0.3c0.5-0.2,1-0.5,1.4-0.9c0.4-0.4,0.7-0.8,0.9-1.3c0.2-0.5,0.3-1,0.3-1.6v-12.4h3.3
			V354c0,1.1-0.2,2-0.6,2.9c-0.4,0.9-0.9,1.6-1.6,2.3c-0.7,0.6-1.5,1.1-2.4,1.5C109.1,361,108.1,361.2,107.1,361.2z"/>
		<path class="st0" d="M139.6,342.6l-1.2,2.7c-0.7-0.3-1.5-0.5-2.2-0.6c-0.7-0.2-1.4-0.2-2-0.2c-1.1,0-1.9,0.2-2.6,0.6
			c-0.6,0.4-0.9,1-0.9,1.6c0,0.6,0.2,1,0.7,1.4c0.5,0.4,1.1,0.7,1.8,1c0.7,0.3,1.5,0.6,2.3,0.9c0.8,0.3,1.6,0.7,2.3,1.1
			c0.7,0.5,1.3,1,1.8,1.8c0.5,0.7,0.7,1.6,0.7,2.7c0,0.9-0.2,1.6-0.5,2.3c-0.3,0.7-0.8,1.3-1.4,1.8c-0.6,0.5-1.4,0.9-2.4,1.2
			c-1,0.3-2.1,0.4-3.3,0.4c-0.8,0-1.5-0.1-2.1-0.2c-0.6-0.1-1.2-0.2-1.7-0.4s-1-0.3-1.3-0.5c-0.4-0.2-0.7-0.4-1-0.5l1.4-2.9
			c0.7,0.4,1.5,0.7,2.4,0.9c0.9,0.2,1.6,0.3,2.3,0.3c0.3,0,0.7,0,1.2-0.1c0.5-0.1,1-0.2,1.5-0.4c0.5-0.2,0.9-0.5,1.2-0.8
			c0.3-0.3,0.5-0.8,0.5-1.3c0-0.6-0.2-1.1-0.7-1.5c-0.5-0.4-1.1-0.8-1.8-1.1c-0.7-0.3-1.5-0.6-2.3-0.9c-0.8-0.3-1.6-0.7-2.3-1.1
			c-0.7-0.4-1.3-0.9-1.8-1.5c-0.5-0.6-0.7-1.4-0.7-2.3c0-0.7,0.1-1.3,0.4-2s0.7-1.2,1.2-1.7c0.5-0.5,1.2-0.9,2-1.3
			c0.8-0.3,1.8-0.5,2.9-0.5c0.7,0,1.4,0.1,2,0.2c0.6,0.1,1.2,0.2,1.7,0.4c0.5,0.1,0.9,0.3,1.3,0.4
			C139.3,342.5,139.5,342.6,139.6,342.6z"/>
		<path class="st0" d="M152.6,341.5h3.3V361h-3.3V341.5z"/>
		<path class="st0" d="M184.1,359.5c-0.2,0.1-0.5,0.3-0.9,0.5c-0.4,0.2-0.8,0.4-1.4,0.5c-0.5,0.2-1.1,0.3-1.8,0.4
			c-0.7,0.1-1.4,0.2-2.1,0.2c-1.5,0-2.9-0.3-4.1-0.8s-2.2-1.2-3.1-2.1c-0.8-0.9-1.5-1.9-1.9-3.1c-0.4-1.2-0.7-2.4-0.7-3.8
			c0-1.5,0.3-2.8,0.8-4c0.5-1.2,1.3-2.3,2.2-3.2c0.9-0.9,2-1.6,3.2-2.1c1.2-0.5,2.5-0.7,3.9-0.7c0.5,0,1.1,0,1.6,0.1
			c0.5,0.1,1.1,0.2,1.5,0.3c0.5,0.1,0.9,0.3,1.3,0.4c0.4,0.2,0.6,0.3,0.8,0.5c-0.2,0.2-0.3,0.5-0.4,0.6c-0.1,0.2-0.2,0.3-0.3,0.5
			c-0.1,0.2-0.2,0.4-0.3,0.6c-0.1,0.2-0.3,0.5-0.5,0.9c-0.2-0.1-0.5-0.3-0.8-0.4c-0.3-0.1-0.6-0.2-0.9-0.3c-0.3-0.1-0.7-0.1-1-0.1
			c-0.3,0-0.6-0.1-0.9-0.1c-1,0-1.9,0.2-2.8,0.6c-0.8,0.4-1.6,0.9-2.2,1.5s-1.1,1.3-1.4,2.1c-0.3,0.8-0.5,1.7-0.5,2.5
			c0,0.9,0.2,1.7,0.5,2.5c0.3,0.8,0.8,1.5,1.4,2.1c0.6,0.6,1.3,1.1,2.1,1.5c0.8,0.4,1.7,0.6,2.7,0.6c0.6,0,1.1-0.1,1.7-0.2
			c0.5-0.1,1-0.2,1.4-0.4c0.4-0.1,0.7-0.3,1-0.4c0.3-0.1,0.4-0.2,0.4-0.3L184.1,359.5z"/>
		<path class="st0" d="M233.1,341.7c-0.6,1.7-1.3,3.4-2,5.2c-0.7,1.8-1.4,3.6-2.1,5.4c-0.7,1.8-1.3,3.5-2,5.1
			c-0.6,1.6-1.2,3.1-1.7,4.5L221,351c-0.1-0.2-0.1-0.3-0.1-0.3s0-0.2-0.1-0.3c0,0.1,0,0.1,0,0.2c0,0.1,0,0.1,0,0.2
			c0,0.1,0,0.1-0.1,0.2c-0.6,1.4-1.3,2.8-1.8,4.1c-0.2,0.6-0.5,1.2-0.8,1.8s-0.5,1.2-0.8,1.8c-0.3,0.6-0.5,1.2-0.8,1.7
			c-0.2,0.6-0.5,1-0.7,1.5c-1.3-3.4-2.6-6.8-3.9-10.1c-1.3-3.3-2.6-6.7-3.9-10.1h3.7c0.8,2.3,1.6,4.4,2.3,6.4c0.7,2,1.3,3.8,1.7,5.3
			c0,0.1,0.1,0.3,0.1,0.5c0,0.2,0.1,0.3,0.1,0.5c0-0.1,0-0.3,0.1-0.5s0.1-0.4,0.2-0.5c0-0.1,0.1-0.3,0.2-0.5s0.2-0.5,0.4-0.8
			c0.1-0.3,0.3-0.7,0.5-1.1c0.2-0.4,0.4-0.8,0.5-1.2c0.4-0.9,0.9-1.9,1.4-3c-0.2-0.7-0.5-1.5-0.7-2.1c-0.2-0.6-0.4-1.1-0.6-1.7
			c-0.2-0.6-0.3-1-0.4-1.3h3.1c0.8,2,1.5,3.8,2.1,5.4c0.3,0.7,0.5,1.4,0.8,2.1c0.3,0.7,0.5,1.3,0.7,1.9c0.2,0.6,0.4,1.1,0.5,1.5
			c0.2,0.4,0.3,0.7,0.3,0.8c0.1,0.2,0.1,0.3,0.1,0.5c0,0.2,0,0.3,0.1,0.5c0-0.2,0.1-0.3,0.1-0.5c0-0.2,0.1-0.3,0.1-0.5
			c0.2-0.8,0.4-1.7,0.7-2.6c0.3-0.9,0.7-1.9,1-2.9c0.4-1,0.8-2,1.2-3.1c0.4-1,0.8-2.1,1.2-3.2H233.1z"/>
		<path class="st0" d="M244.7,361v-19.4h12.9v3h-9.6v5.2h8.6v3h-8.6v5.2h10v3H244.7z"/>
		<path class="st0" d="M296.5,341.5v3.1h-4.8V361h-3.3v-16.3h-4.7v-3.1H296.5z"/>
		<path class="st0" d="M309.1,361v-19.4h5.5c1.1,0,2,0.1,2.9,0.4c0.9,0.3,1.6,0.7,2.2,1.2c0.6,0.5,1.1,1.2,1.4,2
			c0.3,0.8,0.5,1.7,0.5,2.6c0,0.5-0.1,1.1-0.2,1.6c-0.1,0.5-0.3,1-0.5,1.5c-0.2,0.5-0.5,1-0.9,1.4c-0.4,0.4-0.8,0.8-1.3,1.1
			c0.4,0.6,0.8,1.2,1.1,1.8c0.4,0.6,0.8,1.2,1.1,1.8c0.4,0.6,0.8,1.2,1.2,1.9c0.4,0.6,0.9,1.3,1.3,2.1h-3.9
			c-0.8-1.2-1.6-2.4-2.3-3.5c-0.7-1.1-1.4-2.2-2.1-3.2h-0.3h-2.7v6.7H309.1z M312.3,351.2h2.6c0.7,0,1.2-0.1,1.7-0.3
			c0.4-0.2,0.8-0.5,1.1-0.8c0.3-0.3,0.5-0.7,0.6-1.1s0.2-0.7,0.2-1.1c0-0.3,0-0.6-0.1-1c-0.1-0.4-0.3-0.7-0.5-1.1
			c-0.3-0.3-0.6-0.6-1.1-0.9c-0.4-0.2-1-0.3-1.7-0.3h-2.6V351.2z"/>
		<path class="st0" d="M342.3,361.2c-1,0-2-0.2-2.9-0.5c-0.9-0.3-1.7-0.8-2.4-1.5c-0.7-0.6-1.2-1.4-1.6-2.3
			c-0.4-0.9-0.6-1.9-0.6-2.9v-12.5h3.3V354c0,0.6,0.1,1.1,0.3,1.6c0.2,0.5,0.5,0.9,0.9,1.3c0.4,0.4,0.8,0.7,1.3,0.9
			c0.5,0.2,1.1,0.3,1.7,0.3c0.6,0,1.2-0.1,1.7-0.3c0.5-0.2,1-0.5,1.4-0.9c0.4-0.4,0.7-0.8,0.9-1.3c0.2-0.5,0.3-1,0.3-1.6v-12.4h3.3
			V354c0,1.1-0.2,2-0.6,2.9c-0.4,0.9-0.9,1.6-1.6,2.3c-0.7,0.6-1.5,1.1-2.4,1.5C344.3,361,343.4,361.2,342.3,361.2z"/>
		<path class="st0" d="M374.8,342.6l-1.2,2.7c-0.7-0.3-1.5-0.5-2.2-0.6c-0.7-0.2-1.4-0.2-2-0.2c-1.1,0-1.9,0.2-2.6,0.6
			c-0.6,0.4-0.9,1-0.9,1.6c0,0.6,0.2,1,0.7,1.4c0.5,0.4,1.1,0.7,1.8,1c0.7,0.3,1.5,0.6,2.3,0.9c0.8,0.3,1.6,0.7,2.3,1.1
			c0.7,0.5,1.3,1,1.8,1.8c0.5,0.7,0.7,1.6,0.7,2.7c0,0.9-0.2,1.6-0.5,2.3c-0.3,0.7-0.8,1.3-1.4,1.8c-0.6,0.5-1.4,0.9-2.4,1.2
			c-1,0.3-2.1,0.4-3.3,0.4c-0.8,0-1.5-0.1-2.1-0.2s-1.2-0.2-1.7-0.4s-1-0.3-1.3-0.5c-0.4-0.2-0.7-0.4-1-0.5l1.4-2.9
			c0.7,0.4,1.5,0.7,2.4,0.9c0.9,0.2,1.6,0.3,2.3,0.3c0.3,0,0.7,0,1.2-0.1c0.5-0.1,1-0.2,1.5-0.4c0.5-0.2,0.9-0.5,1.2-0.8
			c0.3-0.3,0.5-0.8,0.5-1.3c0-0.6-0.2-1.1-0.7-1.5c-0.5-0.4-1.1-0.8-1.8-1.1c-0.7-0.3-1.5-0.6-2.3-0.9c-0.8-0.3-1.6-0.7-2.3-1.1
			c-0.7-0.4-1.3-0.9-1.8-1.5c-0.5-0.6-0.7-1.4-0.7-2.3c0-0.7,0.1-1.3,0.4-2s0.7-1.2,1.2-1.7c0.5-0.5,1.2-0.9,2-1.3
			c0.8-0.3,1.8-0.5,2.9-0.5c0.7,0,1.4,0.1,2,0.2c0.6,0.1,1.2,0.2,1.7,0.4c0.5,0.1,0.9,0.3,1.3,0.4
			C374.5,342.5,374.7,342.6,374.8,342.6z"/>
		<path class="st0" d="M399.4,341.5v3.1h-4.8V361h-3.3v-16.3h-4.7v-3.1H399.4z"/>
	</g>
</g>
</svg>
